<svg width="195" height="130" fill="none" xmlns="http://www.w3.org/2000/svg"><path d="M106 49c.3 3.3.4 8.7.4 16.2 0 7.3-.1 12.6-.4 15.8-.8 14.3-5.6 26-14.2 35.1-8.5 9.1-21.3 13.7-38.3 13.7-17 0-30-4.6-38.6-13.7a54.3 54.3 0 0 1-14-35A445.5 445.5 0 0 1 1 49c.8-14.3 5.5-26 14-35.1C23.6 4.8 36.4.2 53.5.2c17 0 29.8 4.6 38.3 13.7a53.8 53.8 0 0 1 14.2 35Zm-33.3.9c-.3-6.6-2-11.7-4.8-15.3-3-3.7-7.7-5.6-14.4-5.6-6.8 0-11.6 1.9-14.4 5.6a26.3 26.3 0 0 0-4.9 15.3 434 434 0 0 0 0 30.2C34.4 86.7 36 92 39 95.6c3 3.6 7.8 5.4 14.6 5.4 6.7 0 11.5-1.8 14.4-5.4 3-3.7 4.6-8.9 4.8-15.5a240.8 240.8 0 0 0 0-30.2Zm46.6-7.4c-.6-.7-1-1.7-1-2.9 0-1.7.7-3 2-4L159 6l1.8-1.5 3.3-1.8a8 8 0 0 1 3.2-.7h22c1.3 0 2.4.5 3.4 1.4 1 1 1.4 2.1 1.4 3.5V123c0 1.4-.4 2.5-1.4 3.5-1 1-2.1 1.4-3.4 1.4h-23.6c-1.3 0-2.5-.5-3.4-1.4-1-1-1.5-2.1-1.5-3.5V44.5l-21.4 16.2c-1 .7-2 1-3 1-1.6 0-2.9-.6-3.8-2l-13.3-17.2Z" fill="#fff"/></svg>